<mxfile host="app.diagrams.net" modified="2021-01-25T07:01:23.002Z" agent="5.0 (Macintosh)" etag="1ZTKMpIUTjTiEbOizl-x" version="14.2.6" type="github">
  <diagram id="VT2dFw4bQjWTdSwBYuqa" name="Page-1">
    <mxGraphModel dx="786" dy="523" grid="1" gridSize="10" guides="1" tooltips="1" connect="1" arrows="1" fold="1" page="1" pageScale="1" pageWidth="827" pageHeight="1169" math="0" shadow="0">
      <root>
        <mxCell id="0" />
        <mxCell id="1" parent="0" />
        <mxCell id="VwfanrDl-XuvWEJB6gPD-2" value="&lt;div&gt;申请学校offer&lt;/div&gt;&lt;div&gt;（20%的资金）&lt;br&gt;&lt;/div&gt;" style="rounded=1;whiteSpace=wrap;html=1;" parent="1" vertex="1">
          <mxGeometry x="100" y="130" width="120" height="60" as="geometry" />
        </mxCell>
        <mxCell id="VwfanrDl-XuvWEJB6gPD-4" value="" style="endArrow=classic;html=1;exitX=0.5;exitY=1;exitDx=0;exitDy=0;" parent="1" source="VwfanrDl-XuvWEJB6gPD-2" edge="1">
          <mxGeometry width="50" height="50" relative="1" as="geometry">
            <mxPoint x="380" y="300" as="sourcePoint" />
            <mxPoint x="160" y="240" as="targetPoint" />
            <Array as="points" />
          </mxGeometry>
        </mxCell>
        <mxCell id="VwfanrDl-XuvWEJB6gPD-5" value="考雅思（6666）" style="rounded=1;whiteSpace=wrap;html=1;" parent="1" vertex="1">
          <mxGeometry x="100" y="20" width="120" height="60" as="geometry" />
        </mxCell>
        <mxCell id="VwfanrDl-XuvWEJB6gPD-6" value="" style="endArrow=classic;html=1;exitX=0.5;exitY=1;exitDx=0;exitDy=0;entryX=0.5;entryY=0;entryDx=0;entryDy=0;" parent="1" source="VwfanrDl-XuvWEJB6gPD-5" target="VwfanrDl-XuvWEJB6gPD-2" edge="1">
          <mxGeometry width="50" height="50" relative="1" as="geometry">
            <mxPoint x="380" y="300" as="sourcePoint" />
            <mxPoint x="430" y="250" as="targetPoint" />
          </mxGeometry>
        </mxCell>
        <mxCell id="VwfanrDl-XuvWEJB6gPD-7" value="通过移民公司申请学签（80%资金）" style="rounded=1;whiteSpace=wrap;html=1;" parent="1" vertex="1">
          <mxGeometry x="100" y="240" width="120" height="60" as="geometry" />
        </mxCell>
      </root>
    </mxGraphModel>
  </diagram>
</mxfile>
